<svg xmlns="http://www.w3.org/2000/svg" viewBox="0 0 35 35"><defs><style>.cls-1{isolation:isolate;}.cls-2{mix-blend-mode:multiply;}.cls-3{fill:#f15f2a;}.cls-4{fill:#0b8380;}.cls-5{fill:#ba1b8a;}.cls-6{fill:#4352a3;}.cls-7{fill:#2e3192;}.cls-8{fill:#ed1c24;}.cls-9{fill:#92278f;}.cls-10{fill:#b4d334;}.cls-11{fill:#febb29;}.cls-12{fill:#fff200;}.cls-13{fill:#f5822a;}.cls-14{fill:#00a651;}.cls-15{fill:#292728;}</style></defs><title>dbonblack</title><g class="cls-1"><g id="Layer_1" data-name="Layer 1"><g class="cls-2"><path class="cls-3" d="M4.07,21.57A4.07,4.07,0,1,1,8.15,17.5a4.08,4.08,0,0,1-4.07,4.07"/><path class="cls-4" d="M30.92,21.57A4.07,4.07,0,1,1,35,17.5a4.08,4.08,0,0,1-4.08,4.07"/><path class="cls-5" d="M10.83,33.23a4.08,4.08,0,1,1,3.54-2.05,4.08,4.08,0,0,1-3.54,2.05"/><path class="cls-6" d="M24.33,33.13a4.07,4.07,0,1,1,2.07-.57,4.08,4.08,0,0,1-2.07.57"/><path class="cls-7" d="M29.15,28.24a4.07,4.07,0,1,1,3.93-5.14,4,4,0,0,1-.4,3.09,4.08,4.08,0,0,1-3.54,2"/><path class="cls-8" d="M5.94,28.4a4.07,4.07,0,1,1,3.51-6.15A4.07,4.07,0,0,1,5.94,28.4"/><path class="cls-9" d="M17.51,35a4.07,4.07,0,1,1,4.07-4.07A4.08,4.08,0,0,1,17.51,35"/><path class="cls-10" d="M24.17,9.92a4.08,4.08,0,1,1,2-7.61A4.07,4.07,0,0,1,27.7,7.87a4.08,4.08,0,0,1-3.53,2"/><path class="cls-11" d="M10.67,10A4.08,4.08,0,0,1,6.73,4.93a4.08,4.08,0,0,1,3.94-3.06,4.09,4.09,0,0,1,3.51,2A4.07,4.07,0,0,1,10.67,10"/><path class="cls-12" d="M17.5,8.15a4.07,4.07,0,1,1,4.07-4.08A4.08,4.08,0,0,1,17.5,8.15"/><path class="cls-13" d="M5.85,14.9a4.07,4.07,0,1,1,3.54-2.05A4.06,4.06,0,0,1,5.85,14.9"/><path class="cls-14" d="M29.06,14.75a4.09,4.09,0,0,1-3.51-2A4.07,4.07,0,0,1,29.06,6.6a4.07,4.07,0,0,1,0,8.15"/><path d="M17.51,24.44a6.79,6.79,0,0,1-1-.07,6.93,6.93,0,1,1,1,.07m0-13.5A6.58,6.58,0,0,0,11,16.58,6.55,6.55,0,0,0,16.58,24a6.65,6.65,0,0,0,.93.07,6.55,6.55,0,0,0,.91-13,6.17,6.17,0,0,0-.93-0.07"/><path class="cls-15" d="M16.61,23.81a6.37,6.37,0,1,1,7.19-5.41,6.37,6.37,0,0,1-7.19,5.41m1.75-12.37a6.13,6.13,0,1,0,5.21,6.93,6.13,6.13,0,0,0-5.21-6.93"/><path class="cls-15" d="M18.21,13.73L17.09,19a1.42,1.42,0,0,0,0,.31,0.32,0.32,0,0,0,.4.36,1,1,0,0,0,.79-0.86h0.41c-0.55,1.59-1.43,1.74-2,1.74a0.89,0.89,0,0,1-1-.83,1.73,1.73,0,0,1-1.44.89A1.31,1.31,0,0,1,13,19c0-1.32.81-3.41,2.5-3.41,0.56,0,.79.21,0.79,0.5v0l0.48-2.24Zm-2.48,5.08,0.48-2.23a0.38,0.38,0,0,0-.4-0.34c-0.83,0-1.36,1.75-1.36,2.67,0,0.75.31,0.76,0.48,0.76a1,1,0,0,0,.8-0.81v0Z"/><path class="cls-15" d="M19.28,13.93l1.44-.2-0.47,2.19a1.4,1.4,0,0,1,.8-0.28c0.68,0,1.15.43,1.15,1.67s-0.6,3.29-2.67,3.29a1.18,1.18,0,0,1-1.36-1.25,2.4,2.4,0,0,1,.07-0.55Zm1.42,2.41a1,1,0,0,0-.57.18L19.59,19a0.85,0.85,0,0,0,0,.22,0.43,0.43,0,0,0,.52.45c0.63,0,1.14-1.36,1.14-2.39a0.8,0.8,0,0,0-.52-0.94"/></g></g></g></svg>